HIERARCHY
ROOT Hips
{
  OFFSET -102.467 93.6631 130.069
  CHANNELS 6 Xposition Yposition Zposition Zrotation Xrotation Yrotation
  JOINT LeftUpLeg
  {
    OFFSET 8.64259 1.95398 -2.38835
    CHANNELS 3 Zrotation Xrotation Yrotation
    JOINT LeftLeg
    {
      OFFSET 43.7702 0 0
      CHANNELS 3 Zrotation Xrotation Yrotation
      JOINT LeftFoot
      {
        OFFSET 40.6238 0 0
        CHANNELS 3 Zrotation Xrotation Yrotation
        JOINT LeftToeBase
        {
          OFFSET 12.7242 0 0
          CHANNELS 3 Zrotation Xrotation Yrotation
          End Site
          {
            OFFSET 0 0 0
          }
        }
      }
    }
  }
  JOINT RightUpLeg
  {
    OFFSET -8.2249 1.95398 -2.59336
    CHANNELS 3 Zrotation Xrotation Yrotation
    JOINT RightLeg
    {
      OFFSET 43.5653 0 0
      CHANNELS 3 Zrotation Xrotation Yrotation
      JOINT RightFoot
      {
        OFFSET 40.6238 0 0
        CHANNELS 3 Zrotation Xrotation Yrotation
        JOINT RightToeBase
        {
          OFFSET 12.7242 0 0
          CHANNELS 3 Zrotation Xrotation Yrotation
          End Site
          {
            OFFSET 0 0 0
          }
        }
      }
    }
  }
  JOINT Spine
  {
    OFFSET 0.165834 0.87714 6.61349
    CHANNELS 3 Zrotation Xrotation Yrotation
    JOINT Spine1
    {
      OFFSET 7.38963 1.71661e-005 0
      CHANNELS 3 Zrotation Xrotation Yrotation
      JOINT Spine2
      {
        OFFSET 11.9445 1.14441e-005 0
        CHANNELS 3 Zrotation Xrotation Yrotation
        JOINT Spine3
        {
          OFFSET 14.7254 4.19617e-005 0
          CHANNELS 3 Zrotation Xrotation Yrotation
          JOINT Spine4
          {
            OFFSET 10.9679 0 0
            CHANNELS 3 Zrotation Xrotation Yrotation
            JOINT RightShoulder
            {
              OFFSET 2.46616 -1.6653 3.69651
              CHANNELS 3 Zrotation Xrotation Yrotation
              JOINT RightArm
              {
                OFFSET 13.0012 0 0
                CHANNELS 3 Zrotation Xrotation Yrotation
                JOINT RightForeArm
                {
                  OFFSET 28.7848 1.52588e-005 0
                  CHANNELS 3 Zrotation Xrotation Yrotation
                  JOINT RightHand
                  {
                    OFFSET 26.5688 1.52588e-005 0
                    CHANNELS 3 Zrotation Xrotation Yrotation
                    End Site
                    {
                      OFFSET 0 0 0
                    }
                  }
                }
              }
            }
            JOINT LeftShoulder
            {
              OFFSET 2.38034 -1.29275 -3.7523
              CHANNELS 3 Zrotation Xrotation Yrotation
              JOINT LeftArm
              {
                OFFSET 16.3182 6.10351e-005 0
                CHANNELS 3 Zrotation Xrotation Yrotation
                JOINT LeftForeArm
                {
                  OFFSET 27.0901 0 0
                  CHANNELS 3 Zrotation Xrotation Yrotation
                  JOINT LeftHand
                  {
                    OFFSET 24.5451 1.52588e-005 0
                    CHANNELS 3 Zrotation Xrotation Yrotation
                    End Site
                    {
                      OFFSET 0 0 0
                    }
                  }
                }
              }
            }
            JOINT Neck
            {
              OFFSET 5.0226 -0.0266342 0
              CHANNELS 3 Zrotation Xrotation Yrotation
              JOINT Head
              {
                OFFSET 6.69363 2.86102e-005 0
                CHANNELS 3 Zrotation Xrotation Yrotation
                End Site
                {
                  OFFSET 0 0 0
                }
              }
            }
          }
        }
      }
    }
  }
}
MOTION
Frames:	10
Frame Time:	0.0416667
4.84931 98.4621 -18.5458 111.638 -85.5453 112.099 -174.575 2.55148 90.873 -15.1219 5.37916 2.23712 67.487 3.62659 -0.361058 28.9888 0.162645 2.7812 175.003 2.54767 88.3943 -15.0933 -6.43436 0.159416 68.3651 -3.99021 0.888472 28.5641 0.213484 1.0108 -0.213363 6.92493 -90.2738 13.0378 -0.554996 -0.478961 1.36692 -0.575532 -0.454078 -21.1681 -0.385393 -0.623614 -1.1554 -0.385394 -0.623618 102.096 -51.2301 -82.2761 30.0935 -14.0588 -5.49125 0.719541 -3.31532 -12.9833 -11.6164 -0.352839 -1.71128 -80.4196 -53.537 93.1147 -29.309 7.81645 -16.4965 2.19574 34.6623 -7.10058 -5.37384 -0.0802248 -4.4299 7.61106 -0.860928 5.2735 -20.7413 -0.690719 -8.46908 
4.84989 98.4539 -18.5432 111.272 -85.4703 111.716 -174.379 2.31112 90.9312 -14.4722 4.89647 2.07481 67.3452 3.60248 -0.520527 28.981 0.0792166 1.52488 174.928 2.59467 88.3339 -15.1893 -6.52746 0.23522 68.3863 -3.95262 0.928806 28.2308 0.256032 0.800341 -0.228075 6.92528 -90.2646 13.0291 -0.579854 -0.458077 1.35818 -0.599445 -0.432113 -21.1769 -0.415369 -0.61116 -1.16428 -0.415378 -0.611171 102.181 -51.5139 -82.1452 29.7272 -13.643 -5.6393 0.175244 -4.98146 -13.1803 -10.1124 -0.560948 1.29659 -80.4782 -53.5103 93.0283 -28.9164 9.23951 -16.5036 0.331502 28.2308 -5.8426 -1.20217 -0.0802357 -4.32882 7.77208 -1.30743 4.72925 -20.3526 -1.19891 -7.46221 
4.82786 98.4703 -18.5193 110.852 -85.6192 111.21 -174.502 2.29955 90.8153 -14.306 4.46449 2.13963 67.2214 3.41094 -0.902633 28.9658 0.108863 1.94536 174.864 2.76448 88.2144 -15.306 -6.94603 0.293084 68.23 -3.85492 0.898813 28.5574 0.127325 0.461742 -0.214836 6.92572 -90.2529 13.0414 -0.547913 -0.437993 1.37055 -0.566651 -0.413459 -21.1646 -0.390946 -0.582416 -1.15191 -0.390947 -0.582415 102.233 -51.6613 -82.0647 29.6256 -13.5442 -5.70916 0.11921 -5.17936 -13.0618 -10.2139 -0.533443 0.932745 -80.5319 -53.4778 92.9486 -28.9315 9.3349 -16.6904 0.255039 28.4952 -5.7764 -1.23475 -0.0802308 -4.37404 7.79404 -1.28138 4.46781 -20.2274 -1.18648 -7.05265 
4.782 98.478 -18.503 111.962 -85.6848 112.285 -174.497 2.1888 90.8124 -14.2693 4.39105 2.15194 67.2974 3.39607 -1.1063 28.82 0.153069 2.40056 174.806 2.83925 88.1627 -15.5211 -7.37412 0.362857 68.0809 -3.92142 0.589181 28.9587 0.022155 0.389464 -0.20572 6.92559 -90.2566 13.0271 -0.531585 -0.447901 1.3562 -0.55078 -0.424081 -21.1788 -0.372399 -0.586954 -1.16618 -0.3724 -0.586959 102.31 -51.5306 -81.9471 29.7811 -13.4055 -5.84109 0.124342 -5.13161 -12.9764 -10.3315 -0.531868 0.839256 -80.5951 -53.6909 92.8663 -28.7965 9.3173 -16.7937 0.279266 28.6603 -5.79018 -1.23235 -0.0802446 -4.24342 7.85145 -1.27828 4.7736 -20.3508 -1.18672 -7.43394 
4.76594 98.4719 -18.4862 111.475 -85.6034 111.852 -174.504 2.23132 90.8485 -14.3798 4.41735 2.1927 67.4576 3.59602 -0.879572 28.8431 0.111055 1.79458 174.866 2.90296 88.2536 -15.6705 -7.55529 0.355224 67.8884 -4.04007 0.0892157 29.5807 -0.0718999 0.691056 -0.218316 6.92578 -90.2513 13.0211 -0.554055 -0.434793 1.35018 -0.572658 -0.409993 -21.185 -0.397769 -0.581207 -1.17231 -0.397772 -0.581215 102.289 -51.7833 -81.9804 29.6154 -13.4975 -5.90392 0.0864214 -5.12679 -13.1838 -9.91265 -0.572011 1.60173 -80.6562 -53.4365 92.7652 -28.7699 9.60039 -16.8211 0.102302 28.232 -5.78904 -1.10437 -0.0802453 -4.23716 7.91491 -1.29303 4.6899 -20.4203 -1.16657 -7.53847 
4.73547 98.4642 -18.4694 111.973 -85.4916 112.319 -174.49 2.18064 90.8497 -14.3993 4.69855 2.17649 67.3002 3.63841 -0.558703 29.1979 0.0608326 1.57769 174.858 2.93658 88.2315 -15.912 -7.76922 0.36716 67.8523 -3.98914 0.0478369 29.5814 -0.147951 0.24544 -0.226077 6.92605 -90.2474 13.0102 -0.56769 -0.42592 1.33934 -0.585879 -0.400855 -21.1958 -0.413437 -0.576842 -1.1832 -0.413432 -0.576843 102.348 -51.6608 -81.8901 29.8157 -13.5452 -5.93265 0.105849 -5.19934 -13.107 -10.1091 -0.564587 1.37332 -80.6672 -53.5591 92.7551 -28.6104 9.6392 -16.9609 -0.11542 28.1635 -5.48016 -0.844146 -0.080248 -4.21054 7.70448 -1.28691 4.50696 -20.2392 -1.16843 -7.24408 
4.71924 98.4641 -18.4254 112.431 -85.5096 112.837 -174.429 2.15738 90.9458 -14.448 4.5126 2.1843 67.4244 3.54845 -0.993154 28.8846 0.117386 1.96578 174.815 2.88785 88.2436 -15.8706 -8.07673 0.455459 67.6179 -3.90817 -0.0414902 29.8813 -0.237849 0.131945 -0.218242 6.93202 -90.2481 13.0093 -0.552407 -0.42872 1.3384 -0.570738 -0.405442 -21.1967 -0.398024 -0.574913 -1.18408 -0.398019 -0.57492 102.338 -51.6378 -81.9049 29.9117 -13.5815 -5.8771 0.092944 -5.28818 -13.057 -10.1652 -0.522877 0.838641 -80.7359 -53.6159 92.6576 -28.5406 9.54379 -17.0437 -0.142231 28.4178 -5.3146 -0.548716 -0.0802384 -4.30275 7.54257 -1.32479 4.19998 -20.1633 -1.18407 -6.94265 
4.71021 98.464 -18.416 113.546 -85.5053 113.971 -174.461 2.1116 90.9654 -14.546 4.36433 2.24383 67.5567 3.50174 -1.28256 28.7145 0.165095 2.43094 174.776 2.84483 88.2331 -15.9403 -8.25207 0.505851 67.4826 -3.87983 -0.162894 30.1407 -0.336984 -0.0814219 -0.224997 6.93805 -90.2497 12.9966 -0.566558 -0.430323 1.32573 -0.584951 -0.404926 -21.2094 -0.411035 -0.580698 -1.1968 -0.411041 -0.580707 102.211 -51.6619 -82.0981 29.8149 -13.8773 -5.87295 0.212592 -5.23735 -13.0652 -10.6453 -0.548438 0.842988 -80.7287 -53.7273 92.6739 -28.2923 9.8418 -17.066 -0.44724 28.0826 -5.23331 -0.624499 -0.080254 -4.15229 7.46312 -1.21782 4.58529 -20.3842 -1.07047 -7.43505 
4.75796 98.4578 -18.4034 114.46 -85.4337 114.663 -174.57 1.95493 90.7163 -14.4985 4.29209 2.21684 67.5878 3.67807 -1.09043 28.8006 0.129742 2.0156 174.575 2.89891 87.9276 -16.2305 -8.34228 0.56865 67.6127 -3.99684 -0.338748 30.3764 -0.253896 0.70095 -0.250102 6.95745 -90.2041 12.9581 -0.594499 -0.33603 1.28726 -0.608709 -0.309539 -21.2483 -0.46603 -0.499165 -1.23563 -0.466021 -0.499157 101.933 -51.6261 -82.5244 29.8046 -14.171 -5.83105 0.335984 -4.97801 -13.3405 -10.8359 -0.616561 1.49233 -80.9069 -53.8155 92.4187 -28.5381 9.18448 -17.0643 0.206593 29.8498 -5.44929 -1.66394 -0.0802541 -4.15093 7.01414 -1.31327 4.31291 -19.628 -1.1698 -7.23403 
4.81376 98.4584 -18.3624 116.114 -85.6642 116.409 -174.467 2.04324 90.7753 -14.8121 4.10433 2.16197 67.68 3.75059 -0.959141 29.0233 0.0859961 1.68958 174.578 2.69251 87.9575 -15.8624 -8.27055 0.56036 67.6751 -4.05154 -0.164593 30.2586 -0.16767 1.03483 -0.250583 6.97454 -90.1731 12.9242 -0.580523 -0.275835 1.25331 -0.592089 -0.250019 -21.2824 -0.470775 -0.437551 -1.2697 -0.470782 -0.437555 101.814 -51.4671 -82.7067 30.1354 -13.981 -6.01327 0.532471 -4.18778 -13.26 -11.0482 -0.60892 1.27983 -80.7704 -53.8032 92.6169 -28.3909 9.30363 -17.1077 0.303873 29.8766 -5.78879 -1.51702 -0.080276 -3.92966 6.83474 -1.00837 4.27736 -19.7834 -0.88349 -6.96184 
